# xmcd
#
# Track frame offsets:
#  150
#  13431
#  30775
#  45403
#  61374
#  77458
#  94131
#  108941
#  124197
#  136965
#
# Disc length: 2004 seconds
#
# Revision: 0
# Processed by: cddbd v1.5.1PL0 Copyright (c) Steve Scherf et al.
# Submitted via: AltoMP3_Maker 3.0
#
DISCID=7507d20a
DTITLE=Right Brothers - Right Brothers II
DYEAR=1900
DGENRE=
TTITLE0=If You Ain't Outraged
TTITLE1=I Want To Live
TTITLE2=You Can't Racial Profile
TTITLE3=Wake Up, America
TTITLE4=Somewhere In Baghdad
TTITLE5=Tolerate This
TTITLE6=It's My Money
TTITLE7=This Ain't Your Daddy's Party
TTITLE8=Trickle Down
TTITLE9=Dear Mr. Reagan
EXTD=
EXTT0=
EXTT1=
EXTT2=
EXTT3=
EXTT4=
EXTT5=
EXTT6=
EXTT7=
EXTT8=
EXTT9=
PLAYORDER=
